<svg xmlns="http://www.w3.org/2000/svg" width="600" height="131" viewBox="0 0 600 131" fill="none">
  <path d="M 486.00 91.75 L 486.00 94.25 L 485.50 94.75 L 485.50 98.25 L 485.00 98.75 L 485.00 102.75 L 484.50 103.25 L 484.50 107.75 L 499.50 107.75 L 500.00 107.25 L 500.00 104.75 L 500.50 104.25 L 500.50 99.75 L 501.00 99.25 L 501.00 95.25 L 501.50 94.75 L 501.50 91.75 Z M 599.50 16.25 L 582.00 16.25 L 581.50 17.75 L 580.50 32.25 L 580.00 32.75 L 579.50 41.75 L 579.00 42.25 L 579.00 46.25 L 578.50 46.75 L 578.50 50.75 L 578.00 51.25 L 578.00 56.25 L 577.50 56.75 L 577.50 60.75 L 577.00 61.25 L 577.00 65.25 L 576.50 65.75 L 576.50 69.75 L 576.00 70.25 L 576.00 74.75 L 575.50 75.25 L 575.50 79.75 L 575.00 80.25 L 575.00 84.75 L 574.50 85.25 L 574.50 89.75 L 574.00 90.25 L 574.00 94.25 L 573.50 94.75 L 573.00 103.25 L 572.50 103.75 L 572.50 107.25 L 573.00 107.75 L 589.50 107.75 L 590.00 107.25 Z M 554.00 16.25 L 535.00 16.25 L 534.50 16.75 L 507.00 107.25 L 507.50 107.75 L 523.50 107.75 L 529.50 87.25 L 544.00 87.25 L 544.50 87.75 L 545.50 104.75 L 546.50 107.75 L 562.00 107.75 L 562.00 101.25 L 560.00 85.25 L 558.50 62.25 L 557.00 52.25 Z M 542.00 40.25 L 542.50 40.75 L 542.50 48.75 L 543.00 49.25 L 543.00 60.75 L 543.50 61.25 L 543.50 70.75 L 544.00 71.25 L 544.00 75.75 L 543.50 76.25 L 533.00 76.25 L 532.50 75.75 L 532.50 74.25 L 533.00 73.75 L 533.00 72.25 L 533.50 71.75 L 533.50 70.25 L 534.00 69.75 L 534.00 68.75 L 534.50 68.25 L 534.50 66.75 L 535.00 66.25 L 535.00 64.75 L 535.50 64.25 L 535.50 62.75 L 536.00 62.25 L 536.00 60.75 L 536.50 60.25 L 536.50 58.75 L 537.00 58.25 L 537.00 56.75 L 537.50 56.25 L 537.50 55.25 L 538.00 54.75 L 538.00 53.25 L 538.50 52.75 L 538.50 51.25 L 539.00 50.75 L 539.00 49.25 L 539.50 48.75 L 539.50 47.25 L 540.00 46.75 L 540.00 45.25 L 540.50 44.75 L 540.50 43.25 L 541.00 42.75 L 541.00 41.75 L 541.50 41.25 L 541.50 40.75 Z M 387.00 16.25 L 384.50 35.25 L 377.50 107.75 L 416.00 107.75 L 417.00 105.25 L 418.00 95.75 L 396.50 95.25 L 399.00 67.25 L 400.00 66.25 L 415.50 66.25 L 417.00 57.75 L 417.00 53.75 L 401.00 53.75 L 400.50 52.25 L 403.00 29.25 L 424.50 28.75 L 426.00 16.75 Z M 303.50 16.25 L 305.50 107.25 L 321.00 107.25 L 336.00 50.75 L 339.50 107.25 L 354.00 107.75 L 376.00 16.25 L 361.00 16.75 L 349.00 70.75 L 347.50 63.25 L 345.50 16.75 L 333.50 16.75 L 319.00 70.75 L 318.00 16.25 Z M 465.50 15.75 L 455.00 15.25 L 448.00 16.75 L 444.00 18.75 L 437.00 25.75 L 434.00 31.75 L 432.50 37.25 L 432.00 42.75 L 431.50 43.25 L 431.50 48.25 L 431.00 48.75 L 430.00 62.25 L 429.50 62.75 L 428.00 82.25 L 427.50 82.75 L 427.50 90.75 L 428.00 91.25 L 428.50 95.75 L 431.50 101.75 L 436.50 106.25 L 443.50 108.75 L 454.50 108.75 L 462.00 106.25 L 465.00 104.25 L 470.00 99.25 L 473.50 93.25 L 475.00 88.25 L 475.50 83.25 L 476.00 82.75 L 476.00 78.75 L 476.50 78.25 L 476.50 74.25 L 477.00 73.75 L 477.00 68.75 L 477.50 68.25 L 477.50 63.75 L 478.00 63.25 L 478.00 59.25 L 478.50 58.75 L 479.50 45.25 L 480.00 44.75 L 480.00 31.25 L 478.50 26.25 L 476.00 21.75 L 472.00 18.25 Z M 459.00 29.75 L 461.50 31.25 L 463.50 35.25 L 463.50 41.25 L 463.00 41.75 L 463.00 46.25 L 462.50 46.75 L 462.50 50.25 L 462.00 50.75 L 462.00 54.75 L 461.50 55.25 L 461.50 59.25 L 461.00 59.75 L 461.00 64.75 L 460.50 65.25 L 460.50 69.75 L 460.00 70.25 L 460.00 74.75 L 459.50 75.25 L 459.50 79.25 L 459.00 79.75 L 459.00 83.25 L 458.50 83.75 L 458.50 85.75 L 458.00 86.25 L 458.00 87.75 L 457.50 88.25 L 457.50 89.25 L 456.50 91.25 L 454.00 93.75 L 453.00 93.75 L 452.50 94.25 L 448.50 94.25 L 447.50 93.75 L 445.50 91.75 L 445.00 90.75 L 445.00 89.25 L 444.50 88.75 L 444.50 81.75 L 445.00 81.25 L 445.00 76.25 L 445.50 75.75 L 445.50 71.75 L 446.00 71.25 L 446.00 67.25 L 446.50 66.75 L 446.50 63.25 L 447.00 62.75 L 447.00 57.75 L 447.50 57.25 L 447.50 52.75 L 448.00 52.25 L 448.00 47.75 L 448.50 47.25 L 448.50 42.75 L 449.00 42.25 L 449.00 39.25 L 449.50 38.75 L 449.50 37.25 L 450.00 36.75 L 450.00 35.75 L 450.50 35.25 L 450.50 34.25 L 451.00 33.25 L 454.00 30.25 L 455.00 30.25 L 455.50 29.75 Z M 275.00 50.75 L 266.50 26.75 L 253.50 12.75 L 231.50 2.75 L 210.00 2.25 L 191.50 7.75 L 174.00 19.25 L 144.00 55.75 L 125.50 21.75 L 118.00 17.25 L 110.50 18.75 L 105.00 26.25 L 85.00 78.75 L 68.00 28.75 L 61.00 15.75 L 49.50 6.25 L 35.50 4.75 L 19.50 11.25 L 8.00 24.75 L 1.50 41.75 L 0.00 62.75 L 7.50 90.25 L 25.50 113.25 L 50.00 126.25 L 77.50 128.25 L 98.50 121.75 L 120.50 107.25 L 139.50 87.25 L 173.00 43.25 L 189.50 27.75 L 210.00 17.75 L 230.50 17.75 L 243.00 23.75 L 251.00 31.75 L 257.00 42.25 L 260.00 55.75 L 256.00 81.25 L 239.50 102.25 L 221.00 110.75 L 202.50 111.25 L 176.00 99.75 L 154.50 78.25 L 144.50 88.25 L 162.00 107.75 L 176.50 117.75 L 196.50 125.25 L 215.00 126.75 L 242.00 118.75 L 261.00 102.75 L 273.00 80.25 Z M 12.00 38.75 L 16.50 28.25 L 23.50 21.25 L 29.50 18.75 L 36.00 18.75 L 44.00 22.75 L 50.00 30.25 L 53.50 38.25 L 72.00 96.25 L 74.00 100.25 L 78.00 102.75 L 86.00 102.25 L 92.00 97.75 L 109.00 53.75 L 115.00 42.25 L 118.00 44.25 L 126.00 60.25 L 133.50 70.75 L 124.00 82.25 L 108.50 98.25 L 93.00 109.25 L 82.00 113.75 L 73.00 115.75 L 60.50 115.75 L 51.50 113.75 L 40.00 108.75 L 31.50 102.75 L 25.50 96.75 L 18.50 86.75 L 13.00 73.25 L 10.50 60.75 L 10.50 46.25 Z" fill="#000000" fill-rule="evenodd" clip-rule="evenodd"/>
</svg>
